<?xml version="1.0" encoding="utf-8"?>
<!-- Generator: Adobe Illustrator 22.1.0, SVG Export Plug-In . SVG Version: 6.00 Build 0)  -->
<svg version="1.1" id="logo" xmlns="http://www.w3.org/2000/svg" xmlns:xlink="http://www.w3.org/1999/xlink" x="0px" y="0px"
	 viewBox="0 0 300 376" style="enable-background:new 0 0 300 376;" xml:space="preserve">
<style type="text/css">
	.st0{fill:#050A04;}
	.st1{opacity:0.25;fill:#274873;enable-background:new    ;}
	.st2{opacity:0.5;fill:#274873;enable-background:new    ;}
	.st3{opacity:0.75;fill:#274873;enable-background:new    ;}
	.st4{fill:#274873;}
	.st5{fill:none;}
</style>
<polygon class="st1" points="216.5,292.9 192.7,188.7 299.6,188.7 203.3,142.3 186.8,162.9 "/>
<polygon class="st1" points="126,105 29.6,58.6 96.3,142.3 120.1,130.8 "/>
<polygon class="st2" points="173.6,105 149.8,0.8 126,105 149.8,116.5 "/>
<polygon class="st3" points="149.8,116.5 126,105 120.1,130.8 "/>
<polygon class="st3" points="149.8,209.3 216.5,292.9 186.8,162.9 "/>
<polygon class="st4" points="173.6,105 149.8,116.5 120.1,130.8 96.3,142.3 -0.1,188.7 106.9,188.7 106.9,188.7 83.1,292.9 
	149.6,209 149.8,209.3 186.8,162.9 203.3,142.3 270,58.6 "/>
<rect x="-0.1" y="-0.2" class="st5" width="299.7" height="376.4"/>
</svg>
